<svg width="170" height="172" viewBox="0 0 170 172" fill="none" xmlns="http://www.w3.org/2000/svg">
<mask id="path-1-inside-1_782_11091" fill="white">
<path fill-rule="evenodd" clip-rule="evenodd" d="M87.1271 24L141.254 55.25V117.75L87.1271 149L33.0005 117.75V55.25L87.1271 24Z"/>
</mask>
<path d="M141.254 55.25H142.254V54.6726L141.754 54.384L141.254 55.25ZM87.1271 24L87.6271 23.134L87.1271 22.8453L86.6271 23.134L87.1271 24ZM141.254 117.75L141.754 118.616L142.254 118.327V117.75H141.254ZM87.1271 149L86.6271 149.866L87.1271 150.155L87.6271 149.866L87.1271 149ZM33.0005 117.75H32.0005V118.327L32.5005 118.616L33.0005 117.75ZM33.0005 55.25L32.5005 54.384L32.0005 54.6726V55.25H33.0005ZM141.754 54.384L87.6271 23.134L86.6271 24.866L140.754 56.116L141.754 54.384ZM142.254 117.75V55.25H140.254V117.75H142.254ZM87.6271 149.866L141.754 118.616L140.754 116.884L86.6271 148.134L87.6271 149.866ZM32.5005 118.616L86.6271 149.866L87.6271 148.134L33.5005 116.884L32.5005 118.616ZM32.0005 55.25V117.75H34.0005V55.25H32.0005ZM86.6271 23.134L32.5005 54.384L33.5005 56.116L87.6271 24.866L86.6271 23.134Z" fill="white" mask="url(#path-1-inside-1_782_11091)"/>
<path d="M87.4578 87.8148L89.48 147.041L141 117.127L87.4578 87.8148Z" stroke="white"/>
<path d="M52.9375 106.602L123.771 66.6145" stroke="white"/>
<rect x="44.6826" y="99.7666" width="17.7818" height="9.73244" transform="rotate(-29.8711 44.6826 99.7666)" stroke="white"/>
<rect x="106.613" y="64.8467" width="17.7818" height="9.73244" transform="rotate(-29.8711 106.613 64.8467)" stroke="white"/>
<mask id="mask0_782_11091" style="mask-type:alpha" maskUnits="userSpaceOnUse" x="-105" y="-138" width="400" height="424">
<path d="M-104 109.426L128.343 -137M-94.319 119.693L138.024 -126.732M-84.6381 129.961L147.705 -116.465M-74.9571 140.229L157.386 -106.197M-65.2761 150.497L167.067 -95.929M-55.5952 160.764L176.748 -85.6613M-45.9142 171.032L186.429 -75.3936M-36.2333 181.3L196.11 -65.1258M-26.5523 191.568L205.791 -54.8581M-15.7908 202.858L216.552 -43.5676M-6.10983 213.126L226.233 -33.2999M3.57113 223.394L235.914 -23.0322M13.2521 233.661L245.595 -12.7644M22.9331 243.929L255.276 -2.49668M32.614 254.197L264.957 7.77106M42.295 264.464L274.638 18.0388M51.9759 274.732L284.319 28.3065M61.6569 285L294 38.5743" stroke="white"/>
</mask>
<g mask="url(#mask0_782_11091)">
<path d="M142.022 54.9585V54.6733L141.776 54.5295L87.7651 22.9793L87.5146 22.8329L87.264 22.9793L33.2529 54.5295L33.0067 54.6733V54.9585V118.059V118.344L33.2529 118.488L87.264 150.038L87.5146 150.184L87.7651 150.038L141.776 118.488L142.022 118.344V118.059V54.9585ZM0.496741 0.496741H169.503V171.503H0.496741V0.496741Z" fill="white" stroke="white" stroke-width="0.993483"/>
</g>
</svg>
