<svg width="173" height="170" viewBox="0 0 173 170" fill="none" xmlns="http://www.w3.org/2000/svg">
<path d="M89.0983 32.0512L81.9411 11.1807L58.6706 83.4639H89.0983M89.0983 32.0512L106.729 83.4639H89.0983M89.0983 32.0512V83.4639M89.0983 92.1175H109.689C119.721 121.803 127.697 147.603 130 153.711C134.452 165.52 125.447 169.152 120.388 169.491H171.988C157.823 169.491 148.212 155.238 145.176 148.111L123.613 83.4639M89.0983 92.1175H83.9647H56.647L38.9412 152.184C36.9176 157.953 36.007 169.491 48.5529 169.491H4.54115C10.2745 169.661 23.2588 166.742 29.3294 153.711L51.2037 83.4639M89.0983 92.1175L91.047 169.491M1.50586 83.4639H51.2037M51.2037 83.4639L76.8823 1H96.1059L123.613 83.4639M123.613 83.4639H171.988" stroke="white"/>
<path d="M1 118.188C2.79053 117.783 4.65285 117.57 6.56471 117.57C20.5343 117.57 31.8588 128.965 31.8588 143.022C31.8588 157.078 20.5343 169.492 6.56471 169.492C4.65285 169.492 2.79053 169.278 1 168.874" stroke="white"/>
<path d="M172.494 169.491C158.524 169.491 147.2 158.095 147.2 144.039C147.2 129.982 158.524 118.587 172.494 118.587" stroke="white"/>
<path d="M131.524 159.819C131.524 164.887 127.441 168.99 122.412 168.99C117.383 168.99 113.3 164.887 113.3 159.819C113.3 154.75 117.383 150.647 122.412 150.647C127.441 150.647 131.524 154.75 131.524 159.819Z" stroke="white"/>
<path d="M55.641 159.819C55.641 164.887 51.5586 168.99 46.5292 168.99C41.4999 168.99 37.4175 164.887 37.4175 159.819C37.4175 154.75 41.4999 150.647 46.5292 150.647C51.5586 150.647 55.641 154.75 55.641 159.819Z" stroke="white"/>
</svg>
