<svg width="172" height="172" viewBox="0 0 172 172" fill="none" xmlns="http://www.w3.org/2000/svg">
<path d="M-0.547852 1.15039L51.2608 51.317M120.718 122.621L170.832 171.144M123.06 52.8298C141.68 72.8727 140.527 104.216 120.484 122.836C100.441 141.457 69.0981 140.304 50.4775 120.261C31.857 100.218 33.0102 68.8747 53.0531 50.2542C73.0961 31.6337 104.439 32.7868 123.06 52.8298ZM109.48 65.4428C128.101 85.4858 133.028 111.18 120.485 122.833C107.942 134.486 82.6786 127.684 64.0581 107.641C45.4376 87.5985 40.5108 61.904 53.0538 50.2512C65.5968 38.5983 90.8599 45.3999 109.48 65.4428ZM95.433 78.4997C114.053 98.5426 125.27 118.394 120.485 122.839C115.701 127.284 96.7275 114.639 78.1069 94.5961C59.4864 74.5531 48.2701 54.7018 53.0545 50.2569C57.839 45.812 76.8125 58.4567 95.433 78.4997ZM65.6684 63.8314C85.7114 45.2109 111.406 40.2841 123.059 52.8272C134.712 65.3702 127.91 90.6332 107.867 109.254C87.8241 127.874 62.1296 132.801 50.4768 120.258C38.8239 107.715 45.6255 82.452 65.6684 63.8314ZM78.7209 77.8803C98.7638 59.2598 118.615 48.0435 123.06 52.8279C127.505 57.6124 114.86 76.5858 94.8173 95.2063C74.7743 113.827 54.923 125.043 50.4781 120.259C46.0332 115.474 58.6779 96.5008 78.7209 77.8803Z" stroke="white"/>
</svg>
