<svg width="170" height="170" viewBox="0 0 170 170" fill="none" xmlns="http://www.w3.org/2000/svg">
<mask id="path-1-inside-1_1540_26348" fill="white">
<path d="M74 85.2852L102.284 57.001V113.57L74 85.2852Z"/>
</mask>
<path d="M74 85.2852L73.2929 84.5781L72.5858 85.2852L73.2929 85.9924L74 85.2852ZM102.284 57.001H103.284V54.5868L101.577 56.2939L102.284 57.001ZM102.284 113.57L101.577 114.277L103.284 115.984V113.57H102.284ZM74.7071 85.9924L102.991 57.7081L101.577 56.2939L73.2929 84.5781L74.7071 85.9924ZM102.991 112.862L74.7071 84.5781L73.2929 85.9924L101.577 114.277L102.991 112.862ZM101.284 57.001V113.57H103.284V57.001H101.284Z" fill="white" mask="url(#path-1-inside-1_1540_26348)"/>
<path d="M0 85H73.5" stroke="white"/>
<path d="M102 85L170 85" stroke="white"/>
<path d="M74 55L74 115" stroke="white"/>
</svg>
