<svg width="169" height="172" viewBox="0 0 169 172" fill="none" xmlns="http://www.w3.org/2000/svg">
<path d="M51.9626 165.059C61.9362 169.288 72.7013 171.434 83.5 171.499L83.5 86.2493L83.5 0.501491C72.7013 0.565751 61.9363 2.71192 51.9626 6.94148C41.8381 11.2351 32.5348 17.8322 24.7763 25.7755C17.0188 33.7176 11.0079 42.6639 6.81234 53.0339C2.61664 63.4044 0.499997 75.0155 0.499996 86.2493C0.499995 97.4802 2.61562 108.593 6.81233 118.966C11.0079 129.336 17.0188 138.282 24.7763 146.225C32.5348 154.168 41.8381 160.765 51.9626 165.059Z" stroke="white"/>
<path d="M169 171C157.969 171 146.959 168.866 136.767 164.594C126.576 160.323 117.219 153.763 109.419 145.87C101.618 137.977 95.5702 129.081 91.3488 118.768C87.1274 108.455 85 97.4087 85 86.2464C85 75.084 87.1274 63.5446 91.3488 53.2319C95.5702 42.9192 101.618 34.0234 109.419 26.1304C117.219 18.2375 126.576 11.6774 136.767 7.4058C146.959 3.13415 157.969 1 169 1L169 86.2464L169 171Z" fill="#F7CF61"/>
</svg>
